<?xml version="1.0" encoding="UTF-8"?>
<!DOCTYPE svg PUBLIC "-//W3C//DTD SVG 1.1//EN" "http://www.w3.org/Graphics/SVG/1.1/DTD/svg11.dtd">
<!-- Creator: CorelDRAW -->
<svg xmlns="http://www.w3.org/2000/svg" xml:space="preserve" width="10.9147in" height="10.3679in" version="1.1" style="shape-rendering:geometricPrecision; text-rendering:geometricPrecision; image-rendering:optimizeQuality; fill-rule:evenodd; clip-rule:evenodd"
viewBox="0 0 1253.04 1190.26"
 xmlns:xlink="http://www.w3.org/1999/xlink"
 xmlns:xodm="http://www.corel.com/coreldraw/odm/2003">
 <defs>
  <style type="text/css">
   <![CDATA[
    .str0 {stroke:black;stroke-width:0.77;stroke-miterlimit:2.61313}
    .fil0 {fill:black}
   ]]>
  </style>
 </defs>
 <g id="Layer_x0020_1">
  <metadata id="CorelCorpID_0Corel-Layer"/>
  <path class="fil0 str0" d="M28.74 28.74c37.81,-37.82 99.69,-37.82 137.51,0l456.7 456.7 456.7 -456.7c37.81,-37.82 99.69,-37.82 137.51,0 37.81,37.81 37.81,99.69 0,137.51l-525.45 525.45c-37.82,37.81 -99.69,37.81 -137.51,0l-525.45 -525.45c-37.82,-37.82 -37.82,-99.69 0,-137.51zm7.14 469.81c37.82,-37.82 99.69,-37.82 137.51,0l456.7 456.7 456.7 -456.7c37.81,-37.82 99.69,-37.82 137.51,0 37.81,37.82 37.81,99.69 0,137.51l-525.45 525.45c-37.82,37.81 -99.69,37.81 -137.51,0l-525.45 -525.45c-37.82,-37.82 -37.82,-99.69 0,-137.51z"/>
 </g>
</svg>
