<?xml version="1.0" encoding="UTF-8"?>
<!DOCTYPE svg PUBLIC "-//W3C//DTD SVG 1.1//EN" "http://www.w3.org/Graphics/SVG/1.1/DTD/svg11.dtd">
<!-- Creator: CorelDRAW -->
<svg xmlns="http://www.w3.org/2000/svg" xml:space="preserve" width="6.59785in" height="3.83382in" version="1.1" style="shape-rendering:geometricPrecision; text-rendering:geometricPrecision; image-rendering:optimizeQuality; fill-rule:evenodd; clip-rule:evenodd"
viewBox="0 0 4621.1 2685.19"
 xmlns:xlink="http://www.w3.org/1999/xlink"
 xmlns:xodm="http://www.corel.com/coreldraw/odm/2003">
 <defs>
  <style type="text/css">
   <![CDATA[
    .fil0 {fill:none}
    .fil2 {fill:black}
    .fil1 {fill:white;fill-rule:nonzero}
   ]]>
  </style>
 </defs>
 <g id="Layer_x0020_1">
  <metadata id="CorelCorpID_0Corel-Layer"/>
  <rect class="fil0" x="-0" y="99.87" width="4621.1" height="1441.14"/>
  <path class="fil1" d="M2366.8 720.82l93.9 0 0 -167.51 66.61 0 0 -67.7 -227.12 0 0 67.7 66.61 0 0 167.51zm-1665.7 229.23c0,178.54 52.46,331.6 196.58,402.67 -144.18,-71.05 -196.66,-224.1 -196.66,-402.67 0,-202.38 124.25,-340.86 303.58,-340.86 65.66,0 120.75,14.23 170.43,37.28 23.06,10.65 42.61,14.23 60.34,14.23 12.7,0 24.13,-2.52 33.92,-7.19l0.04 -0.02 1.38 -0.68c22.32,-11.22 35.79,-33.82 35.79,-63.18 0,-26.63 -15.98,-53.26 -53.26,-70.99 -67.49,-33.71 -154.45,-53.26 -248.57,-53.26 -78.96,0 -151.02,15.76 -213.82,44.84 -3.44,1.59 -6.84,3.22 -10.22,4.89l-0.01 0.01c-154.39,76.26 -250.1,234.98 -250.1,438.49 0,76.31 13.47,146.33 38.97,207.94 -36.89,79.93 -93.17,122.19 -166.65,122.19 -88.79,0 -147.38,-51.51 -147.38,-168.68l0 -500.56 207.71 0c47.93,0 79.89,-28.38 79.89,-69.24 0,-40.86 -31.96,-69.24 -79.89,-69.24l-207.71 0 -0 -181.08c0,-53.26 -35.53,-88.79 -85.21,-88.79 -49.68,0 -85.21,35.53 -85.21,88.79l0 351.24 0 0.28 -0 0 0 488.16c0,195.31 111.85,298.25 301.83,298.25 42.61,0 81.64,-7.08 117.17,-19.55 62.13,-23.31 112.08,-64.28 147.35,-122.96 84.33,91.05 209.57,144.33 365.54,144.33 81.78,-0.07 152.76,-16.04 216.66,-49.74l0.1 -0.01c129.57,-67.49 221.94,-204.13 285.77,-413.6l37.19 -122.19c24.85,33.08 59.77,64.76 106.47,97.38l133.15 92.29c2.08,1.44 4.13,2.88 6.17,4.32 55.97,40.72 79.19,75.57 79.19,125.25 0,76.31 -60.34,127.82 -147.38,127.82 -83.46,0 -154.45,-42.61 -193.49,-42.61 -39.03,0.01 -65.66,26.63 -65.66,65.67 0,28.38 14.23,51.51 51.51,69.24 51.51,24.88 134.9,46.18 209.46,46.18 94.11,0 172.18,-28.38 227.26,-78.14 2.08,-1.87 4.06,-3.82 5.94,-5.84 46.06,-45.74 73.81,-109.17 73.81,-182.31 0,-106.52 -42.61,-177.51 -149.13,-252.07l-145.55 -101.19c-89.86,-62.42 -143.74,-123.94 -167.81,-175.33 24.09,51.37 78,112.9 167.88,175.33 -56.83,-40.86 -81.64,-78.14 -81.64,-122.5 0,-56.83 46.18,-92.29 111.85,-92.29 83.46,0 122.5,39.03 172.18,39.03 39.03,0 65.66,-26.63 65.66,-65.66 0,-28.38 -14.23,-51.51 -51.51,-69.24 -58.58,-28.38 -122.5,-39.03 -191.73,-39.03 -72.81,0 -136.72,21.3 -182.83,56.83 -15.23,15.23 -24.03,33.7 -24.82,55.37 0.77,-21.69 9.58,-40.19 24.82,-55.44 -8.9,7.08 -17.73,14.15 -26.7,23.12 -0.72,0.79 -1.43,1.59 -2.13,2.39 -52.25,56.77 -95.85,139.44 -130.87,254.94l-40.86 134.9c-72.81,237.92 -188.16,351.51 -367.49,351.51 -197.06,0 -321.3,-136.65 -321.3,-339.03zm2938.88 339.4c-31.37,-11.96 -45.02,-20.5 -45.02,-38.52 0,-13.86 11.6,-28.31 38.81,-28.31 22.11,0 38.52,6.71 46.98,11.16l10.29 -34.66c-12.26,-6.2 -30.93,-11.6 -56.4,-11.6 -51,0 -83.24,29.04 -83.24,67.56 0,33.71 24.81,54.57 63.69,68.36 29.7,10.8 41.66,21.3 41.66,39.03 0,19.26 -15.32,32.1 -42.75,32.1 -21.89,0 -42.97,-7 -56.83,-15.03l-9.56 35.6c12.84,7.88 38.67,15.03 63.55,15.03 60.7,0 89.23,-32.83 89.23,-70.7 0.07,-33.92 -19.55,-54.5 -60.41,-70.04zm-1105.45 32.54l88.64 0 0 -35.02 -88.64 0 0 -60.48 93.97 0 0 -35.31 -136.94 0 0 235.14 142.12 0 0 -35.31 -99.15 0 0 -69.02zm-142.05 -32.54c-31.45,-11.96 -45.02,-20.5 -45.02,-38.52 0,-13.86 11.6,-28.31 38.81,-28.31 22.11,0 38.52,6.71 46.98,11.16l10.29 -34.66c-12.26,-6.2 -30.93,-11.6 -56.4,-11.6 -51,0 -83.24,29.04 -83.24,67.56 0,33.71 24.81,54.57 63.69,68.36 29.7,10.8 41.66,21.3 41.66,39.03 0,19.26 -15.32,32.1 -42.75,32.1 -21.89,0 -42.97,-7 -56.83,-15.03l-9.56 35.6c12.84,7.88 38.67,15.03 63.55,15.03 60.7,0 89.23,-32.83 89.23,-70.7 0.07,-33.92 -19.55,-54.5 -60.41,-70.04zm896.14 -66.54c19.19,0 34.87,4.23 45.82,9.19l9.34 -34.22c-8.75,-4.74 -28.67,-10.43 -56.98,-10.43 -71.86,0 -125.92,46.69 -125.92,124.03 0,71.57 45.45,118.56 120.09,118.56 28.45,0 50.85,-5.55 60.99,-10.72l-7.08 -33.85c-11.38,5.11 -29.47,8.54 -46.91,8.54 -51.73,0 -81.86,-32.83 -81.86,-84.7 0,-56.47 34.51,-86.38 82.51,-86.38zm132.64 99.08l88.64 0 0 -35.02 -88.64 0 0 -60.48 93.9 0 0 -35.31 -136.87 0 0 235.14 142.05 0 0 -35.31 -99.08 0 0 -69.02zm-445.62 -23.27c-9.12,28.53 -17.66,57.27 -23.93,85l-0.73 0c-6.13,-28.45 -14.15,-55.96 -23.06,-85.65l-32.1 -106.96 -46.84 0 76.09 235.22 49.25 0 81.28 -235.22 -45.75 0 -34.22 107.61zm-190.06 17.36l0 -0.95c21.96,-7.81 42.39,-28.23 42.39,-58.29 0,-19.99 -7.3,-36.19 -20.06,-46.84 -15.76,-13.13 -42.9,-18.82 -72.01,-18.82 -29.11,0 -48.37,2.04 -64.64,5.04l0 230.18 42.31 -0 0 -95.94 21.45 0c24.22,0.58 35.31,10.43 42.02,40.86 6.49,29.04 12.11,48.3 15.69,55.08l43.77 0c-4.67,-9.12 -11.02,-35.9 -18.39,-65.08 -5.83,-22.69 -15.61,-38.81 -32.54,-45.23zm-46.77 -16.93l-25.24 0 0 -73.76c4.3,-1.09 12.99,-2.11 26.48,-2.11 27.58,0.07 45.45,11.96 45.45,37.43 0,23.2 -17.8,38.45 -46.69,38.45zm342.17 127.24l42.97 0 0 -235.22 -42.97 0 0 235.22zm-140.88 -588.04l-39.76 0 0 82.08c0,35.97 0.8,66.25 3.87,97.47l-0.8 0.22c-10.87,-25.53 -24.51,-52.89 -40.05,-78.79l-60.77 -100.97 -49.1 0 0 235.22 39.76 0 0 -84.12c0,-38.59 -0.58,-69.68 -2.26,-100.17l1.09 -0.22c11.6,26.63 26.92,55.45 42.17,81.13l61.43 103.45 44.5 -0.01 0 -235.29 -0.07 0zm413.89 134.39l0 -134.32 -42.97 0 0 137.16c0,46.11 -18.6,67.34 -49.54,67.34 -29.11,0 -48.23,-21.38 -48.23,-67.34l0 -137.16 -42.97 0 0 134.61c0,73.98 35.38,104.55 89.59,104.55 56.83,-0.07 94.11,-32.39 94.11,-104.84zm91.85 -134.39l-42.97 0 0 235.22 139.71 0 0 -36.04 -96.74 0 0 -199.17zm825.96 31.81c19.19,0 34.87,4.23 45.82,9.19l9.34 -34.22c-8.75,-4.74 -28.67,-10.43 -56.98,-10.43 -71.86,0 -125.92,46.69 -125.92,124.03 0,71.57 45.45,118.56 120.09,118.56 28.45,0 50.85,-5.55 60.99,-10.72l-7.08 -33.85c-11.31,5.11 -29.47,8.54 -46.91,8.54 -51.73,0 -81.86,-32.83 -81.86,-84.7 -0,-56.47 34.51,-86.38 82.51,-86.38zm-1664.17 -35.6c-66.39,0 -111.99,51 -111.99,123.23 0,68.87 42.02,119.72 108.56,119.72l0.37 0c64.42,0 112.21,-45.09 112.21,-123.88 -0.15,-67.27 -40.56,-119.07 -109.15,-119.07zm-1.68 208.51l-0.36 0c-41.08,0 -65.08,-39.54 -64.93,-86.31 -0.07,-46.91 22.54,-87.84 65.44,-87.84 42.9,0 64.93,41.95 64.93,86.31 -0.07,49.17 -23.57,87.84 -65.08,87.84zm1881.65 -204.72l-28.31 60.26c-8.02,17.07 -14.52,31.66 -20.36,46.69l-0.73 0c-6.42,-15.91 -12.55,-29.33 -20.5,-46.62l-28.02 -60.34 -49.17 0 74.42 137.31 0 97.91 42.97 0 0 -99.08 78.14 -136.07 -48.45 -0 0 -0.07zm-858.71 235.22l0 -199.1 67.78 0 0 -36.11 -177.94 0 0 36.11 67.19 0 0 199.1 42.97 0zm-1200.96 -203.41c19.19,0 34.87,4.23 45.82,9.19l9.34 -34.22c-8.75,-4.74 -28.67,-10.43 -56.98,-10.43 -71.86,0 -125.92,46.69 -125.92,124.03 0,71.57 45.45,118.56 120.09,118.56 28.45,0 50.85,-5.62 60.99,-10.72l-7.08 -33.85c-11.31,5.11 -29.47,8.54 -46.91,8.54 -51.73,0 -81.86,-32.83 -81.86,-84.7 0,-56.47 34.51,-86.38 82.51,-86.38zm617.51 171.52c-21.89,0 -42.97,-7 -56.83,-15.03l-9.56 35.6c12.84,7.88 38.67,15.03 63.55,15.03 60.7,0 89.23,-32.83 89.23,-70.7 0,-33.78 -19.62,-54.35 -60.48,-69.89 -31.37,-11.96 -45.02,-20.5 -45.02,-38.52 0,-13.86 11.6,-28.31 38.89,-28.31 22.11,0 38.52,6.71 46.98,11.16l10.29 -34.66c-12.26,-6.2 -30.93,-11.6 -56.4,-11.6 -51,0 -83.24,29.04 -83.24,67.56 0,33.71 24.81,54.57 63.69,68.36 29.7,10.8 41.66,21.3 41.66,39.03 0,19.12 -15.39,31.96 -42.75,31.96zm700.25 -34.58l74.71 0 21.3 66.47 46.11 0 -76.39 -235.22 -54.64 0 -75.51 235.22 44.43 0 19.99 -66.47zm25.17 -90.54c4.16,-14.01 7.73,-30.28 11.16,-44.07l0.73 0c3.57,13.64 7.44,29.7 11.89,44.21l18.53 58 -60.63 0 18.31 -58.15zm188.08 -27.58c11.6,26.63 26.92,55.45 42.17,81.13l61.43 103.45 44.51 0 0 -235.22 -39.76 0 0 82.08c0,35.97 0.8,66.25 3.87,97.47l-0.8 0.22c-10.87,-25.53 -24.51,-52.89 -40.05,-78.79l-60.77 -100.97 -49.1 0 0 235.22 39.69 0 0 -84.12c0,-38.59 -0.58,-69.68 -2.26,-100.24l1.09 -0.22zm-901.1 -168.17l47.86 -140.66 47.79 140.66 91.85 0 -89.96 -235.22 -99.37 0 -89.96 235.22 91.78 0zm-229.74 0l93.9 0 0 -167.51 66.61 0 0 -67.7 -227.12 0 0 67.7 66.61 0 0 167.51zm-231.57 0l47.86 -140.66 47.79 140.66 91.85 0 -90.03 -235.22 -99.3 0 -89.96 235.22 91.78 0z"/>
  <g id="_2530312574160">
   <path class="fil2" d="M875.51 394.31c0,-73.19 3.04,-115.28 62.75,-170.69 132.78,-123.23 338.47,-19.92 338.47,148.81 0,174.82 -214.43,263.39 -333.9,151.52 -31.26,-29.27 -67.32,-72.44 -67.32,-129.64zm-160.49 -109.42l-547.46 -0.35c-67.67,0.3 -109.07,25.02 -109.07,95.18 0,105.17 176.79,80.24 284.5,80.24 124.01,0 248.03,0 372.04,0 15.5,186.26 344.18,417.11 596.69,195.47 99.02,-86.91 88.35,-118.05 125.5,-195.47 65.87,0 1997.68,8.94 2044.1,-5.76 89.63,-28.38 80.54,-137.58 7.2,-163.47 -43.79,-15.46 -1986.94,-5.85 -2051.3,-5.85 -8.74,-18.22 -13.52,-39.45 -21.89,-58.36 -108.84,-245.84 -410.65,-289.86 -578.13,-140.44 -48.16,42.97 -115.54,119.02 -122.18,198.8z"/>
   <path class="fil2" d="M2524.15 1357.23c0,-95.15 38.01,-164.34 121.61,-199.36 209.37,-87.7 374.75,172.85 219.75,329.17 -77.09,77.74 -198.02,74.24 -277.66,3.44 -29.67,-26.38 -63.71,-80.5 -63.71,-133.25zm-160.49 -102.13l-2230.8 1.43c-91.79,15 -106.05,142.99 -4.64,169.56 51.87,13.59 2161.81,4.08 2235.44,4.08 87.57,375.87 634.52,376.3 722.19,0 52.18,0 359.79,5.54 395.46,-5.76 91.21,-28.88 78.36,-136.97 7.24,-163.51 -30.18,-11.26 -354.59,-5.81 -402.7,-5.81 -86.91,-373.05 -633.83,-379.28 -722.19,0z"/>
   <path class="fil2" d="M1393.45 2327.45c0,-65.81 12.26,-114.02 59.91,-158.94 195.65,-184.45 466.87,101.73 281.46,288.75 -77.4,78.08 -202.64,76.74 -277.86,3.65 -29.54,-28.7 -63.5,-78.87 -63.5,-133.46zm-160.49 -102.13l-1092.76 1.47c-108.68,14.88 -109.54,152.8 -6.3,171.13 43.5,7.73 1030.35,2.47 1099.05,2.47 18.18,78.03 65.4,149.64 118.83,194.84 140.08,118.51 336.41,120.22 480.5,3.27 56.32,-45.71 103.88,-116.64 122.86,-198.12l1459.15 0.17c172.1,0.96 143.91,-123.28 92.84,-158.85 -39.63,-27.6 -230.87,-16.4 -297.27,-16.4 -418.24,0 -836.48,0 -1254.72,0 -87.67,-376.3 -634.62,-375.87 -722.19,0z"/>
  </g>
 </g>
</svg>
