<?xml version="1.0" encoding="UTF-8"?>
<!DOCTYPE svg PUBLIC "-//W3C//DTD SVG 1.1//EN" "http://www.w3.org/Graphics/SVG/1.1/DTD/svg11.dtd">
<!-- Creator: CorelDRAW -->
<svg xmlns="http://www.w3.org/2000/svg" xml:space="preserve" width="6.355in" height="1.75406in" version="1.1" style="shape-rendering:geometricPrecision; text-rendering:geometricPrecision; image-rendering:optimizeQuality; fill-rule:evenodd; clip-rule:evenodd"
viewBox="0 0 3991.59 1101.73"
 xmlns:xlink="http://www.w3.org/1999/xlink"
 xmlns:xodm="http://www.corel.com/coreldraw/odm/2003">
 <defs>
  <style type="text/css">
   <![CDATA[
    .fil0 {fill:#007DC5;fill-rule:nonzero}
    .fil2 {fill:url(#id0);fill-rule:nonzero}
    .fil1 {fill:url(#id1);fill-rule:nonzero}
    .fil6 {fill:url(#id2);fill-rule:nonzero}
    .fil3 {fill:url(#id3);fill-rule:nonzero}
    .fil4 {fill:url(#id4);fill-rule:nonzero}
    .fil9 {fill:url(#id5);fill-rule:nonzero}
    .fil8 {fill:url(#id6);fill-rule:nonzero}
    .fil5 {fill:url(#id7);fill-rule:nonzero}
    .fil7 {fill:url(#id8);fill-rule:nonzero}
   ]]>
  </style>
  <linearGradient id="id0" gradientUnits="userSpaceOnUse" x1="243.59" y1="277.87" x2="165.07" y2="873.17">
   <stop offset="0" style="stop-opacity:1; stop-color:#F80000"/>
   <stop offset="1" style="stop-opacity:1; stop-color:#EE3984"/>
  </linearGradient>
  <linearGradient id="id1" gradientUnits="userSpaceOnUse" x1="73.48" y1="36.19" x2="73.48" y2="356.78">
   <stop offset="0" style="stop-opacity:1; stop-color:#FFC708"/>
   <stop offset="1" style="stop-opacity:1; stop-color:#F05731"/>
  </linearGradient>
  <linearGradient id="id2" gradientUnits="userSpaceOnUse" x1="1270.8" y1="651.2" x2="1754.96" y2="651.2">
   <stop offset="0" style="stop-opacity:1; stop-color:red"/>
   <stop offset="1" style="stop-opacity:1; stop-color:#EE3984"/>
  </linearGradient>
  <linearGradient id="id3" gradientUnits="userSpaceOnUse" x1="132.36" y1="971.65" x2="564.18" y2="844.96">
   <stop offset="0" style="stop-opacity:1; stop-color:#EE3984"/>
   <stop offset="1" style="stop-opacity:1; stop-color:#7800DA"/>
  </linearGradient>
  <linearGradient id="id4" gradientUnits="userSpaceOnUse" xlink:href="#id2" x1="721.21" y1="446.04" x2="878.23" y2="996.17">
  </linearGradient>
  <linearGradient id="id5" gradientUnits="userSpaceOnUse" xlink:href="#id3" x1="793.18" y1="866.58" x2="1087.6" y2="415.62">
  </linearGradient>
  <linearGradient id="id6" gradientUnits="userSpaceOnUse" xlink:href="#id1" x1="1323.14" y1="382.95" x2="1728.79" y2="382.95">
  </linearGradient>
  <linearGradient id="id7" gradientUnits="userSpaceOnUse" x1="394.07" y1="448.38" x2="1094.14" y2="448.38">
   <stop offset="0" style="stop-opacity:1; stop-color:#FFC708"/>
   <stop offset="1" style="stop-opacity:1; stop-color:#FA3B00"/>
  </linearGradient>
  <linearGradient id="id8" gradientUnits="userSpaceOnUse" xlink:href="#id3" x1="1656.82" y1="886.74" x2="1238.08" y2="997.96">
  </linearGradient>
 </defs>
 <g id="Layer_x0020_1">
  <metadata id="CorelCorpID_0Corel-Layer"/>
  <g id="Tata_Consultancy_Services_Logo.svg">
   <g>
    <g>
     <polygon class="fil0" points="2046.24,461.53 2130.44,461.53 2130.44,311.3 2190.18,311.3 2190.18,250.59 1986.51,250.59 1986.51,311.3 2046.24,311.3 "/>
     <polygon class="fil0" points="2252.27,461.53 2295.19,335.38 2338.04,461.53 2420.42,461.53 2339.68,250.59 2250.63,250.59 2169.96,461.53 "/>
     <polygon class="fil0" points="2459.94,461.53 2544.14,461.53 2544.14,311.3 2603.87,311.3 2603.87,250.59 2400.2,250.59 2400.2,311.3 2459.94,311.3 "/>
     <polygon class="fil0" points="2665.97,461.53 2708.89,335.38 2751.74,461.53 2834.11,461.53 2753.44,250.59 2664.33,250.59 2583.66,461.53 "/>
     <path class="fil0" d="M3474.06 612.33c10.4,23.88 24.14,49.72 37.82,72.76l55.09 92.78 39.91 0 0 -210.94 -35.66 0 0 73.61c0,32.26 0.72,59.41 3.47,87.41l-0.72 0.2c-9.75,-22.9 -21.98,-47.43 -35.92,-70.66l-54.5 -90.55 -44.03 0 0 210.94 35.59 0 0 -75.44c0,-34.61 -0.52,-62.48 -2.03,-89.9l0.98 -0.2z"/>
     <path class="fil0" d="M3282.81 718.26l67 0 19.11 59.61 41.35 0 -68.5 -210.94 -49 0 -67.72 210.94 39.84 0 17.93 -59.61zm22.57 -81.2c3.73,-12.56 6.94,-27.15 10.01,-39.52l0.65 0c3.2,12.24 6.67,26.63 10.67,39.65l16.62 52.01 -54.37 0 16.42 -52.15z"/>
     <path class="fil0" d="M2654.84 749.27c-19.63,0 -38.54,-6.28 -50.97,-13.48l-8.57 31.93c11.52,7.07 34.68,13.48 56.99,13.48 54.43,0 80.02,-29.44 80.02,-63.4 0,-30.29 -17.6,-48.74 -54.24,-62.68 -28.13,-10.73 -40.37,-18.39 -40.37,-34.55 0,-12.43 10.4,-25.39 34.87,-25.39 19.82,0 34.55,6.02 42.13,10.01l9.23 -31.08c-10.99,-5.56 -27.74,-10.4 -50.57,-10.4 -45.73,0 -74.65,26.04 -74.65,60.58 0,30.23 22.25,48.94 57.12,61.3 26.63,9.68 37.36,19.11 37.36,35 0,17.15 -13.81,28.66 -38.34,28.66z"/>
     <path class="fil0" d="M2101.07 595.46c17.21,0 31.27,3.8 41.09,8.24l8.38 -30.69c-7.85,-4.25 -25.71,-9.36 -51.1,-9.36 -64.44,0 -112.93,41.87 -112.93,111.23 0,64.19 40.76,106.32 107.69,106.32 25.52,0 45.6,-5.04 54.7,-9.62l-6.35 -30.36c-10.14,4.58 -26.43,7.66 -42.07,7.66 -46.39,0 -73.41,-29.44 -73.41,-75.96 0,-50.64 30.95,-77.47 74,-77.47z"/>
     <polygon class="fil0" points="3178.07,777.87 3178.07,599.32 3238.85,599.32 3238.85,566.93 3079.27,566.93 3079.27,599.32 3139.53,599.32 3139.53,777.87 "/>
     <path class="fil0" d="M3948.14 566.93l-25.39 54.04c-7.2,15.31 -13.02,28.4 -18.25,41.87l-0.65 0c-5.76,-14.26 -11.25,-26.3 -18.39,-41.81l-25.12 -54.11 -44.1 0 66.74 123.14 0 87.8 38.54 0 0 -88.85 70.07 -122.02 -43.45 -0 0 -0.06z"/>
     <path class="fil0" d="M2262.21 563.53c-59.54,0 -100.43,45.73 -100.43,110.51 0,61.76 37.69,107.37 97.36,107.37l0.33 0c57.77,0 100.63,-40.43 100.63,-111.09 -0.13,-60.32 -36.38,-106.78 -97.88,-106.78zm-1.51 186.99l-0.33 0c-36.84,0 -58.36,-35.46 -58.23,-77.4 -0.06,-42.07 20.22,-78.77 58.69,-78.77 38.47,0 58.23,37.62 58.23,77.4 -0.06,44.1 -21.13,78.77 -58.36,78.77z"/>
     <path class="fil0" d="M3754.61 595.46c17.21,0 31.27,3.8 41.09,8.24l8.38 -30.69c-7.85,-4.25 -25.71,-9.36 -51.1,-9.36 -64.44,0 -112.93,41.87 -112.93,111.23 0,64.19 40.76,106.32 107.69,106.32 25.52,0 45.6,-4.97 54.7,-9.62l-6.35 -30.36c-10.14,4.58 -26.43,7.66 -42.07,7.66 -46.39,0 -73.41,-29.44 -73.41,-75.96 -0,-50.64 30.95,-77.47 74,-77.47z"/>
     <polygon class="fil0" points="3013.91,566.93 2975.37,566.93 2975.37,777.87 3100.66,777.87 3100.66,745.54 3013.91,745.54 "/>
     <path class="fil0" d="M2931.54 687.44l0 -120.45 -38.54 0 0 123c0,41.35 -16.68,60.39 -44.42,60.39 -26.11,0 -43.25,-19.17 -43.25,-60.39l0 -123 -38.54 0 0 120.71c0,66.34 31.73,93.76 80.35,93.76 50.97,-0.07 84.4,-29.05 84.4,-94.02z"/>
     <path class="fil0" d="M2560.37 566.93l-35.66 0 0 73.61c0,32.26 0.72,59.41 3.47,87.41l-0.72 0.2c-9.75,-22.9 -21.98,-47.43 -35.92,-70.66l-54.5 -90.55 -44.03 0 0 210.94 35.66 0 0 -75.44c0,-34.61 -0.52,-62.48 -2.03,-89.83l0.98 -0.2c10.4,23.88 24.14,49.72 37.82,72.76l55.09 92.78 39.91 -0 0 -211 -0.06 0z"/>
     <rect class="fil0" x="2686.71" y="883.33" width="38.54" height="210.94"/>
     <path class="fil0" d="M2421.79 995.35l0 -0.85c19.69,-7 38.01,-25.32 38.01,-52.28 0,-17.93 -6.54,-32.45 -17.99,-42 -14.13,-11.78 -38.47,-16.88 -64.58,-16.88 -26.11,0 -43.38,1.83 -57.97,4.52l0 206.42 37.95 -0 0 -86.04 19.24 0c21.72,0.52 31.67,9.36 37.69,36.64 5.82,26.04 10.86,43.31 14.07,49.4l39.26 0c-4.19,-8.18 -9.88,-32.19 -16.49,-58.36 -5.23,-20.35 -14,-34.81 -29.18,-40.56zm-41.94 -15.18l-22.64 0 0 -66.15c3.86,-0.98 11.65,-1.9 23.75,-1.9 24.73,0.06 40.76,10.73 40.76,33.56 0,20.8 -15.96,34.48 -41.87,34.48z"/>
     <path class="fil0" d="M2592.23 979.77c-8.18,25.58 -15.83,51.36 -21.46,76.22l-0.66 0c-5.5,-25.52 -12.69,-50.18 -20.68,-76.81l-28.79 -95.92 -42 0 68.24 210.94 44.16 0 72.89 -210.94 -41.02 0 -30.69 96.51z"/>
     <polygon class="fil0" points="2991.86,1000.65 3071.35,1000.65 3071.35,969.24 2991.86,969.24 2991.86,915 3076.06,915 3076.06,883.34 2953.32,883.34 2953.32,1094.21 3080.71,1094.21 3080.71,1062.54 2991.86,1062.54 "/>
     <path class="fil0" d="M2872.91 911.8c17.21,0 31.27,3.8 41.09,8.24l8.38 -30.69c-7.85,-4.25 -25.71,-9.36 -51.1,-9.36 -64.44,0 -112.93,41.87 -112.93,111.23 0,64.19 40.76,106.32 107.69,106.32 25.52,0 45.6,-4.97 54.7,-9.62l-6.35 -30.36c-10.21,4.58 -26.43,7.66 -42.07,7.66 -46.39,0 -73.41,-29.44 -73.41,-75.96 0,-50.64 30.95,-77.47 74,-77.47z"/>
     <path class="fil0" d="M2069.27 971.47c-28.2,-10.73 -40.37,-18.39 -40.37,-34.55 0,-12.43 10.4,-25.39 34.81,-25.39 19.82,0 34.55,6.02 42.13,10.01l9.23 -31.08c-10.99,-5.56 -27.74,-10.4 -50.57,-10.4 -45.73,0 -74.65,26.04 -74.65,60.58 0,30.23 22.25,48.94 57.12,61.3 26.63,9.68 37.36,19.11 37.36,35 0,17.27 -13.74,28.79 -38.34,28.79 -19.63,0 -38.54,-6.28 -50.97,-13.48l-8.57 31.93c11.52,7.07 34.68,13.48 56.99,13.48 54.43,0 80.02,-29.44 80.02,-63.4 0.06,-30.42 -17.53,-48.87 -54.18,-62.81z"/>
     <polygon class="fil0" points="2196.66,1000.65 2276.15,1000.65 2276.15,969.24 2196.66,969.24 2196.66,915 2280.93,915 2280.93,883.34 2158.12,883.34 2158.12,1094.21 2285.57,1094.21 2285.57,1062.54 2196.66,1062.54 "/>
     <path class="fil0" d="M3188.01 971.47c-28.13,-10.73 -40.37,-18.39 -40.37,-34.55 0,-12.43 10.4,-25.39 34.81,-25.39 19.82,0 34.55,6.02 42.13,10.01l9.23 -31.08c-10.99,-5.56 -27.74,-10.4 -50.57,-10.4 -45.73,0 -74.65,26.04 -74.65,60.58 0,30.23 22.25,48.94 57.12,61.3 26.63,9.68 37.36,19.11 37.36,35 0,17.27 -13.74,28.79 -38.34,28.79 -19.63,0 -38.54,-6.28 -50.97,-13.48l-8.57 31.93c11.52,7.07 34.68,13.48 56.99,13.48 54.43,0 80.02,-29.44 80.02,-63.4 0.06,-30.42 -17.53,-48.87 -54.18,-62.81z"/>
    </g>
    <g>
     <path class="fil1" d="M0 394.86c0,-95.52 62.09,-152.84 152.84,-152.84l-0 -162.39c0,-47.76 -31.86,-79.63 -76.42,-79.63 -44.56,0 -76.42,31.86 -76.42,79.63l0 315.23z"/>
     <path class="fil2" d="M270.67 1100.1c38.21,0 73.21,-6.35 105.08,-17.53 -160.82,27.09 -222.91,-82.77 -222.91,-206.95l0 -509.42 186.27 0c42.99,0 71.64,-25.45 71.64,-62.09 0,-36.64 -28.66,-62.09 -71.64,-62.09l-186.27 0c-90.75,0 -152.84,57.32 -152.84,152.84l0 437.77c0,175.15 100.3,267.46 270.67,267.46z"/>
     <path class="fil3" d="M375.75 1082.56c63.66,-23.88 113.06,-68.44 144.86,-133.73l-71.64 -128.96c-31.86,95.52 -87.54,146.49 -163.96,146.49 -79.63,0 -132.16,-46.19 -132.16,-151.27l0 60.52c0,124.18 62.09,234.03 222.91,206.95z"/>
     <path class="fil4" d="M1030.02 1057.11c-362.99,54.11 -477.62,-140.08 -477.62,-390.01 0,-181.49 111.42,-305.68 272.24,-305.68 58.89,0 108.28,12.76 152.84,33.43 20.68,9.55 38.21,12.76 54.11,12.76 38.21,0 63.66,-25.45 63.66,-63.66 0,-23.88 -14.33,-47.76 -47.76,-63.66 -60.52,-30.23 -138.51,-47.76 -222.91,-47.76 -251.57,0 -425.08,178.29 -425.08,437.77 0,254.71 167.17,431.43 436.2,431.43 73.35,-0.06 137.01,-14.39 194.32,-44.62z"/>
     <path class="fil5" d="M399.63 670.24c0,-259.49 173.51,-437.77 425.08,-437.77 84.4,0 162.39,17.53 222.91,47.76 33.43,15.9 47.76,39.78 47.76,63.66 0,38.21 -25.45,63.66 -63.66,63.66 -15.9,0 -33.43,-3.2 -54.11,-12.76 -54.11,-25.45 -106.65,-33.43 -152.84,-33.43 -221.41,0.06 -425.15,140.14 -425.15,308.88z"/>
     <path class="fil6" d="M1350.03 283.43c-14.33,14.33 -22.31,31.86 -22.31,52.54 0,52.54 49.33,130.53 163.96,210.15l130.53 90.75c95.52,66.87 133.73,130.53 133.73,226.05 0,68.44 -27.09,127.39 -71.64,168.74 15.9,-14.33 25.45,-33.43 25.45,-58.89 0,-55.75 -55.75,-143.29 -175.15,-226.05l-119.4 -82.77c-100.3,-70.07 -140.08,-135.3 -140.08,-224.48 0,-52.54 19.11,-100.3 50.97,-135.3 8.04,-8.04 15.96,-14.39 23.94,-20.74z"/>
     <path class="fil7" d="M1246.59 998.22c0,25.45 12.76,46.19 46.19,62.09 46.19,22.31 120.97,41.42 187.84,41.42 84.4,0 154.41,-25.45 203.81,-70.07 15.9,-14.33 25.45,-33.43 25.45,-58.89 0,-55.75 -55.75,-143.29 -175.15,-226.05 54.11,38.21 76.42,70.07 76.42,116.2 0,68.44 -54.11,114.63 -132.16,114.63 -74.85,0 -138.51,-38.21 -173.51,-38.21 -35,0 -58.88,23.89 -58.88,58.89z"/>
     <path class="fil8" d="M1491.74 546.12c-50.97,-36.64 -73.21,-70.07 -73.21,-109.85 0,-50.97 41.42,-82.77 100.3,-82.77 74.85,0 109.85,35 154.41,35 35,0 58.89,-23.88 58.89,-58.89 0,-25.45 -12.76,-46.19 -46.19,-62.09 -52.54,-25.45 -109.85,-35 -171.94,-35 -65.3,0 -122.61,19.11 -163.96,50.97 -14.33,14.33 -22.31,31.86 -22.31,52.54 0,52.48 49.4,130.46 164.03,210.09z"/>
     <path class="fil9" d="M552.47 667.1c0,249.93 114.63,444.19 477.62,390.01 116.2,-60.52 199.03,-183.06 256.28,-370.91l33.43 -109.85c-31.86,-41.42 -44.56,-87.54 -44.56,-136.94 0,-52.54 19.11,-100.3 50.97,-135.3 -47.76,50.97 -87.54,125.75 -119.4,230.83l-36.64 120.97c-65.3,213.36 -168.74,315.23 -329.56,315.23 -176.72,0 -288.14,-122.54 -288.14,-304.04z"/>
    </g>
   </g>
  </g>
 </g>
</svg>
