<?xml version="1.0" encoding="UTF-8"?>
<!DOCTYPE svg PUBLIC "-//W3C//DTD SVG 1.1//EN" "http://www.w3.org/Graphics/SVG/1.1/DTD/svg11.dtd">
<!-- Creator: CorelDRAW -->
<svg xmlns="http://www.w3.org/2000/svg" xml:space="preserve" width="2.79563in" height="1.75406in" version="1.1" style="shape-rendering:geometricPrecision; text-rendering:geometricPrecision; image-rendering:optimizeQuality; fill-rule:evenodd; clip-rule:evenodd"
viewBox="0 0 571.46 358.55"
 xmlns:xlink="http://www.w3.org/1999/xlink"
 xmlns:xodm="http://www.corel.com/coreldraw/odm/2003">
 <defs>
  <style type="text/css">
   <![CDATA[
    .fil1 {fill:url(#id0);fill-rule:nonzero}
    .fil0 {fill:url(#id1);fill-rule:nonzero}
    .fil5 {fill:url(#id2);fill-rule:nonzero}
    .fil2 {fill:url(#id3);fill-rule:nonzero}
    .fil3 {fill:url(#id4);fill-rule:nonzero}
    .fil8 {fill:url(#id5);fill-rule:nonzero}
    .fil7 {fill:url(#id6);fill-rule:nonzero}
    .fil4 {fill:url(#id7);fill-rule:nonzero}
    .fil6 {fill:url(#id8);fill-rule:nonzero}
   ]]>
  </style>
  <linearGradient id="id0" gradientUnits="userSpaceOnUse" x1="79.27" y1="90.43" x2="53.72" y2="284.17">
   <stop offset="0" style="stop-opacity:1; stop-color:#F80000"/>
   <stop offset="1" style="stop-opacity:1; stop-color:#EE3984"/>
  </linearGradient>
  <linearGradient id="id1" gradientUnits="userSpaceOnUse" x1="23.91" y1="11.78" x2="23.91" y2="116.11">
   <stop offset="0" style="stop-opacity:1; stop-color:#FFC708"/>
   <stop offset="1" style="stop-opacity:1; stop-color:#F05731"/>
  </linearGradient>
  <linearGradient id="id2" gradientUnits="userSpaceOnUse" x1="413.58" y1="211.93" x2="571.15" y2="211.93">
   <stop offset="0" style="stop-opacity:1; stop-color:red"/>
   <stop offset="1" style="stop-opacity:1; stop-color:#EE3984"/>
  </linearGradient>
  <linearGradient id="id3" gradientUnits="userSpaceOnUse" x1="43.08" y1="316.22" x2="183.61" y2="274.99">
   <stop offset="0" style="stop-opacity:1; stop-color:#EE3984"/>
   <stop offset="1" style="stop-opacity:1; stop-color:#7800DA"/>
  </linearGradient>
  <linearGradient id="id4" gradientUnits="userSpaceOnUse" xlink:href="#id2" x1="234.71" y1="145.16" x2="285.82" y2="324.2">
  </linearGradient>
  <linearGradient id="id5" gradientUnits="userSpaceOnUse" xlink:href="#id3" x1="258.14" y1="282.02" x2="353.96" y2="135.26">
  </linearGradient>
  <linearGradient id="id6" gradientUnits="userSpaceOnUse" xlink:href="#id1" x1="430.61" y1="124.63" x2="562.63" y2="124.63">
  </linearGradient>
  <linearGradient id="id7" gradientUnits="userSpaceOnUse" x1="128.25" y1="145.92" x2="356.09" y2="145.92">
   <stop offset="0" style="stop-opacity:1; stop-color:#FFC708"/>
   <stop offset="1" style="stop-opacity:1; stop-color:#FA3B00"/>
  </linearGradient>
  <linearGradient id="id8" gradientUnits="userSpaceOnUse" xlink:href="#id3" x1="539.21" y1="288.59" x2="402.93" y2="324.78">
  </linearGradient>
 </defs>
 <g id="Layer_x0020_1">
  <metadata id="CorelCorpID_0Corel-Layer"/>
  <path class="fil0" d="M0 128.5c0,-31.09 20.21,-49.74 49.74,-49.74l-0 -52.85c0,-15.54 -10.37,-25.91 -24.87,-25.91 -14.5,0 -24.87,10.37 -24.87,25.91l0 102.59z"/>
  <path class="fil1" d="M88.09 358.02c12.44,0 23.83,-2.07 34.2,-5.71 -52.34,8.82 -72.55,-26.94 -72.55,-67.35l0 -165.79 60.62 0c13.99,0 23.32,-8.28 23.32,-20.21 0,-11.92 -9.33,-20.21 -23.32,-20.21l-60.62 0c-29.53,0 -49.74,18.65 -49.74,49.74l0 142.47c0,57 32.64,87.05 88.09,87.05z"/>
  <path class="fil2" d="M122.29 352.32c20.72,-7.77 36.79,-22.27 47.14,-43.52l-23.32 -41.97c-10.37,31.09 -28.49,47.68 -53.36,47.68 -25.91,0 -43.01,-15.03 -43.01,-49.23l0 19.7c0,40.41 20.21,76.17 72.55,67.35z"/>
  <path class="fil3" d="M335.22 344.03c-118.13,17.61 -155.44,-45.59 -155.44,-126.93 0,-59.07 36.26,-99.48 88.6,-99.48 19.16,0 35.24,4.15 49.74,10.88 6.73,3.11 12.44,4.15 17.61,4.15 12.44,0 20.72,-8.28 20.72,-20.72 0,-7.77 -4.66,-15.54 -15.54,-20.72 -19.7,-9.84 -45.08,-15.54 -72.55,-15.54 -81.87,0 -138.34,58.02 -138.34,142.47 0,82.89 54.4,140.41 141.96,140.41 23.87,-0.02 44.59,-4.68 63.24,-14.52z"/>
  <path class="fil4" d="M130.06 218.13c0,-84.45 56.47,-142.47 138.34,-142.47 27.47,0 52.85,5.71 72.55,15.54 10.88,5.17 15.54,12.95 15.54,20.72 0,12.44 -8.28,20.72 -20.72,20.72 -5.17,0 -10.88,-1.04 -17.61,-4.15 -17.61,-8.28 -34.71,-10.88 -49.74,-10.88 -72.06,0.02 -138.36,45.61 -138.36,100.52z"/>
  <path class="fil5" d="M439.36 92.24c-4.66,4.66 -7.26,10.37 -7.26,17.1 0,17.1 16.06,42.48 53.36,68.39l42.48 29.53c31.09,21.76 43.52,42.48 43.52,73.57 0,22.27 -8.82,41.46 -23.32,54.91 5.17,-4.66 8.28,-10.88 8.28,-19.16 0,-18.14 -18.14,-46.63 -57,-73.57l-38.86 -26.94c-32.64,-22.8 -45.59,-44.03 -45.59,-73.06 0,-17.1 6.22,-32.64 16.59,-44.03 2.62,-2.62 5.19,-4.68 7.79,-6.75z"/>
  <path class="fil6" d="M405.7 324.87c0,8.28 4.15,15.03 15.03,20.21 15.03,7.26 39.37,13.48 61.13,13.48 27.47,0 50.25,-8.28 66.33,-22.8 5.17,-4.66 8.28,-10.88 8.28,-19.16 0,-18.14 -18.14,-46.63 -57,-73.57 17.61,12.44 24.87,22.8 24.87,37.82 0,22.27 -17.61,37.31 -43.01,37.31 -24.36,0 -45.08,-12.44 -56.47,-12.44 -11.39,0 -19.16,7.77 -19.16,19.16z"/>
  <path class="fil7" d="M485.48 177.73c-16.59,-11.92 -23.83,-22.8 -23.83,-35.75 0,-16.59 13.48,-26.94 32.64,-26.94 24.36,0 35.75,11.39 50.25,11.39 11.39,0 19.16,-7.77 19.16,-19.16 0,-8.28 -4.15,-15.03 -15.03,-20.21 -17.1,-8.28 -35.75,-11.39 -55.96,-11.39 -21.25,0 -39.9,6.22 -53.36,16.59 -4.66,4.66 -7.26,10.37 -7.26,17.1 0,17.08 16.08,42.46 53.38,68.37z"/>
  <path class="fil8" d="M179.8 217.1c0,81.34 37.31,144.56 155.44,126.93 37.82,-19.7 64.77,-59.58 83.4,-120.71l10.88 -35.75c-10.37,-13.48 -14.5,-28.49 -14.5,-44.57 0,-17.1 6.22,-32.64 16.59,-44.03 -15.54,16.59 -28.49,40.93 -38.86,75.12l-11.92 39.37c-21.25,69.44 -54.91,102.59 -107.25,102.59 -57.51,0 -93.77,-39.88 -93.77,-98.95z"/>
 </g>
</svg>
