<?xml version="1.0" encoding="UTF-8"?>
<!DOCTYPE svg PUBLIC "-//W3C//DTD SVG 1.1//EN" "http://www.w3.org/Graphics/SVG/1.1/DTD/svg11.dtd">
<!-- Creator: CorelDRAW -->
<svg xmlns="http://www.w3.org/2000/svg" xml:space="preserve" width="1.18in" height="1.44333in" version="1.1" style="shape-rendering:geometricPrecision; text-rendering:geometricPrecision; image-rendering:optimizeQuality; fill-rule:evenodd; clip-rule:evenodd"
viewBox="0 0 185.62 227.04"
 xmlns:xlink="http://www.w3.org/1999/xlink"
 xmlns:xodm="http://www.corel.com/coreldraw/odm/2003">
 <defs>
  <style type="text/css">
   <![CDATA[
    .fil0 {fill:none}
    .fil1 {fill:white}
   ]]>
  </style>
 </defs>
 <g id="Layer_x0020_1">
  <metadata id="CorelCorpID_0Corel-Layer"/>
  <rect class="fil0" x="0" width="185.62" height="227.04"/>
  <path class="fil1" d="M76.09 29.17c-21.45,3.56 -38.68,22.3 -45.75,42.28 -4.66,13.18 -4.59,24.64 -4.59,39.45 0,14.94 -0.01,29.89 -0,44.83 -1.25,1.07 -1.84,1.48 -3.4,3.16l-17.74 17.4c-2.29,2.19 -1.41,7.21 -1.41,12.72l179.32 0.01c0.03,-15.35 1.16,-8.71 -9.02,-19.81l-11.01 -11.01c-1.68,-1.49 -2.47,-1.75 -2.55,-4.77 -0.5,-19.17 0.86,-39.19 -0.07,-58.26 -1.64,-33.55 -21.74,-59.61 -50.22,-66.01 -0.02,-7.26 0.73,-12.21 -2.96,-17.54 -2.52,-3.64 -7.21,-7.15 -13.83,-7.14 -6.57,0.01 -11.09,3.45 -13.59,6.87 -3.88,5.32 -3.21,10.44 -3.18,17.84zm39.31 171.4l-45.08 -0.01c0.34,12.39 9.99,22.08 22.54,22.02 12.43,-0.05 22.09,-9.73 22.55,-22.01z"/>
 </g>
</svg>
